{"asset":{"version":"2.0","generator":"HospitalSim iOS Astra shell isolation probe","extras":{"diagnostic":"room-shell-only","clinicalState":"untouched","collision":"legacy"}},"scene":0,"scenes":[{"nodes":[0,1,2,3,4,5,6]}],"nodes":[{"name":"probe_floor","mesh":1,"translation":[0,0.011,0],"scale":[6.08,0.02,5.88]},{"name":"probe_north","mesh":0,"translation":[0,1.5,2.91],"scale":[6.08,2.98,0.04]},{"name":"probe_south","mesh":0,"translation":[0,1.5,-2.91],"scale":[6.08,2.98,0.04]},{"name":"probe_west","mesh":0,"translation":[-3.01,1.5,0],"scale":[0.04,2.98,5.88]},{"name":"probe_east_n","mesh":0,"translation":[3.01,1.5,1.96],"scale":[0.04,2.98,1.96]},{"name":"probe_east_s","mesh":0,"translation":[3.01,1.5,-1.96],"scale":[0.04,2.98,1.96]},{"name":"probe_door_header","mesh":0,"translation":[3.01,2.73,0],"scale":[0.04,0.52,1.84]}],"meshes":[{"name":"wall_panel","primitives":[{"attributes":{"POSITION":0,"NORMAL":1},"indices":2,"material":0}]},{"name":"floor_panel","primitives":[{"attributes":{"POSITION":0,"NORMAL":1},"indices":2,"material":1}]}],"materials":[{"name":"wall_paint_probe","pbrMetallicRoughness":{"baseColorFactor":[0.84,0.89,0.88,1],"roughnessFactor":0.78,"metallicFactor":0}},{"name":"floor_probe","pbrMetallicRoughness":{"baseColorFactor":[0.72,0.68,0.62,1],"roughnessFactor":0.88,"metallicFactor":0}}],"accessors":[{"bufferView":0,"componentType":5126,"count":24,"type":"VEC3","min":[-0.5,-0.5,-0.5],"max":[0.5,0.5,0.5]},{"bufferView":1,"componentType":5126,"count":24,"type":"VEC3"},{"bufferView":2,"componentType":5123,"count":36,"type":"SCALAR"}],"bufferViews":[{"buffer":0,"byteOffset":0,"byteLength":288,"target":34962},{"buffer":0,"byteOffset":288,"byteLength":288,"target":34962},{"buffer":0,"byteOffset":576,"byteLength":72,"target":34963}],"buffers":[{"byteLength":648,"uri":"data:application/octet-stream;base64,"}]}